# xmcd
#
# Track frame offsets: 
#        150
#        12303
#        23780
#        35686
#        44209
#        56100
#        72481
#        87053
#        104434
#        116432
#        130927
#        143661
#        163339
#        175215
#        192837
#        209496
#        225773
#        238819
#        249492
#        261557
#        272690
#        283145
#        295033
#        304748
#        315908
#
# Disc length: 4439 seconds
#
# Revision: 0
# Processed by: cddbd v1.5.2PL0 Copyright (c) Steve Scherf et al.
# Submitted via: ExactAudioCopy v1.3
#
DISCID=76115519
DTITLE=Various Artist - Country Love Songs
DYEAR=2005
DGENRE=
TTITLE0=Patsy Cline - Crazy
TTITLE1=Crystal Gayle - Don't It Make My Brown Eyes Blue
TTITLE2=Tammy Wynette - Stand By Your Man
TTITLE3=Skeeter Davis and Bobby Bare - A Dear John Letter
TTITLE4=Dolly Parton - Jolene
TTITLE5=Elvis Presley - Always On My Mind
TTITLE6=Ronnie McDowell - The King Is Gone
TTITLE7=Kenny Rogers - Lady
TTITLE8=Charlie Rich - The Most Beautiful Girl
TTITLE9=Glen Campbell - Rhinestone Cowboy
TTITLE10=Lynn Anderson - Rose Garden
TTITLE11=Marty Robbins - El Paso
TTITLE12=Eddy Arnold - Make The World Go Away
TTITLE13=Bobby Goldsboro - Honey
TTITLE14=Mary MacGregor - Torn Between Two Lovers
TTITLE15=Debby Boone - You Light Up My Life
TTITLE16=Dolly Parton - I Will Always Love You
TTITLE17=Porter Wagoner - Green Green Grass Of Home
TTITLE18=Bobby Bare - 500 Miles Away From Home
TTITLE19=Hank Locklin - Send Me The Pillow You Dream On
TTITLE20=Jim Reeves - He'll Have To Go
TTITLE21=Willie Nelson - Funny How Time Slips Away
TTITLE22=Ned Miller - From A Jack To A King
TTITLE23=Don Gibson - Oh Lonesome Me
TTITLE24=Johnny Cash - A Boy Named Sue
EXTD=
EXTT0=
EXTT1=
EXTT2=
EXTT3=
EXTT4=
EXTT5=
EXTT6=
EXTT7=
EXTT8=
EXTT9=
EXTT10=
EXTT11=
EXTT12=
EXTT13=
EXTT14=
EXTT15=
EXTT16=
EXTT17=
EXTT18=
EXTT19=
EXTT20=
EXTT21=
EXTT22=
EXTT23=
EXTT24=
PLAYORDER=
